<?xml version="1.0" encoding="UTF-8"?>
<svg id="Layer_1" xmlns="http://www.w3.org/2000/svg" xmlns:xlink="http://www.w3.org/1999/xlink" version="1.1" viewBox="0 0 309.7 102">
  <!-- Generator: Adobe Illustrator 29.2.1, SVG Export Plug-In . SVG Version: 2.1.0 Build 116)  -->
  <defs>
    <style>
      .st0 {
        fill: none;
      }

      .st1 {
        fill-rule: evenodd;
      }

      .st1, .st2 {
        fill: #fff;
      }

      .st3 {
        clip-path: url(#clippath);
      }
    </style>
    <clipPath id="clippath">
      <rect class="st0" width="112.8" height="102"/>
    </clipPath>
  </defs>
  <g class="st3">
    <path class="st1" d="M4.8,46.9c2.7,0,4.8,2.2,4.8,4.8s-2.2,4.8-4.8,4.8S0,54.4,0,51.7s2.2-4.8,4.8-4.8M7.9,19.8c2.3,0,4.1,1.8,4.1,4.1s-1.8,4.1-4.1,4.1-4.1-1.8-4.1-4.1,1.8-4.1,4.1-4.1ZM25.6,32.3c3.6,0,6.5,2.9,6.5,6.5s-2.9,6.5-6.5,6.5-6.5-2.9-6.5-6.5c0-3.6,2.9-6.5,6.5-6.5ZM33.1,7.3c3.3,0,6,2.7,6,6s-2.7,6-6,6-6-2.7-6-6,2.7-6,6-6ZM68.7,11.5l11.9,17.4h.5c6,0,10.8,4.8,10.8,10.8s-4.8,10.8-10.8,10.8-5.5-1.1-7.4-3l-6.5,2.4c-.7,2.3-2.3,4.2-4.3,5.3,1.7.6,3.2,1.7,4.3,3.1h8.1c1.6-2.1,4-3.3,6.7-3.3,4.6,0,8.4,3.8,8.4,8.4s-3.8,8.4-8.4,8.4-5.1-1.2-6.6-3.3h-8.2c-1.3,1.8-3.2,3-5.4,3.3l-3.1,6.6c.3.9.5,1.9.5,2.8,0,2.5-1.2,4.8-3,6.3,5.3,1.5,10.1,4.6,13.6,9h17.5l6.3-12.5c8.7-2.2,14.9-1.9,11.7-12.5,2.8-2.7,4.6-3.7,1.4-6,1.3-.7,1.7-1.3,1.9-2.3l-2.3-4.3c4.6-2.6,6.7-5.3,5.1-7.1l-10.5-12c-1.8-21.9-16.1-31.9-31.5-32.7,0,.2,0,.5,0,.7,0,1.3-.2,2.6-.7,3.8ZM66.2,6.9C65.8,3.1,62.5,0,58.5,0s-7.7,3.5-7.7,7.7.1,1.6.4,2.4c1,3.1,3.9,5.3,7.3,5.3s2.5-.3,3.6-.9l13.4,19.7c-1.4,1.4-2.2,3.3-2.2,5.4v.3s-10.2,3.7-10.2,3.7c-1.1-1.4-2.7-2.2-4.6-2.2-3.2,0-5.8,2.6-5.8,5.9s2.6,5.8,5.8,5.8,5.7-2.5,5.8-5.6l10.2-3.7c1.4,2.1,3.8,3.5,6.5,3.5,4.3,0,7.7-3.5,7.7-7.7s-3.5-7.7-7.7-7.7-1.3,0-1.9.2l-13.9-20.4c.7-1.2,1.1-2.6,1.1-4s0-.5,0-.8ZM48.3,77.2c-1.3.9-2.1,2.4-2.1,4,0,2.5,1.9,4.6,4.4,4.9.2,0,.3,0,.5,0,2.7,0,4.9-2.2,4.9-4.9s-.3-2-.9-2.8l4.5-9.6h.5c2.3,0,4.3-1.4,5.1-3.4h11.7c.8,1.9,2.7,3.2,4.9,3.2s5.3-2.4,5.3-5.3-2.4-5.3-5.3-5.3-4.1,1.4-4.9,3.3h-11.7c-.8-2-2.8-3.5-5.2-3.5s-3.4.9-4.5,2.3l-9.7-5.3c.1-.5.2-.9.2-1.4,0-2.1-.9-3.9-2.4-5.2l4.1-10c.4,0,.8,0,1.3,0,5.5,0,10-4.5,10-10s-4.5-10-10-10-10,4.5-10,10,2,6.8,4.9,8.6l-4,9.8h-.6c-3.7,0-6.7,3-6.7,6.7s3,6.7,6.7,6.7,3.4-.7,4.6-1.8l10.7,5.8c.2,1.1.6,2.1,1.3,2.9l-4.4,9.4h-.5c-1,0-2,.3-2.8.8ZM58.5,38.4c1.9,0,3.8.6,5.3,1.8l6.5-2.4c.2-1.3.7-2.5,1.4-3.6l-10.8-15.9c-.8.2-1.6.3-2.4.3h-.8c2.7,2.4,4.4,5.8,4.4,9.7s-1.9,7.8-4.9,10.2c.4,0,.9-.1,1.4-.1ZM48.2,90.4c3.1,0,5.6,2.5,5.6,5.6s-2.5,5.6-5.6,5.6-5.6-2.5-5.6-5.6,2.5-5.6,5.6-5.6ZM30.7,81.9c3.1,0,5.6,2.5,5.6,5.6s-2.5,5.6-5.6,5.6-5.6-2.5-5.6-5.6,2.5-5.6,5.6-5.6ZM22.1,62.4c2.6,0,4.7,2.1,4.7,4.7s-2.1,4.7-4.7,4.7-4.7-2.1-4.7-4.7,2.1-4.7,4.7-4.7Z"/>
  </g>
  <path class="st2" d="M134.6,62.3l-6.5-12.3h-3.1v12.3h-6.5V30.1h12.7c1.9,0,3.6.4,4.9,1.2,1.3.8,2.4,1.8,3.1,3.1.8,1.3,1.2,2.7,1.4,4.2.2,1.5,0,2.9-.4,4.4-.4,1.4-1.1,2.7-2.1,3.8-1,1.1-2.3,1.9-3.9,2.3l7.5,13.3h-7.3ZM125,43.7h5.7c.9,0,1.6-.2,2.1-.7.5-.5.9-1.1,1.1-1.8.2-.7.2-1.4,0-2.2-.2-.7-.5-1.3-1.1-1.8-.5-.5-1.2-.7-2.1-.7h-5.7v7.2Z"/>
  <path class="st2" d="M160.4,62.3h-16.7V30.1h16.2v6.5h-9.7v6.5h8.5v6.5h-8.5v6.4h10.3v6.5Z"/>
  <path class="st2" d="M162.5,60.2l.8-6.8c1.2.9,2.5,1.5,3.7,1.9,1.2.4,2.3.6,3.3.7,1,0,1.7,0,2.2,0,1,0,1.8-.4,2.4-1,.7-.6,1-1.4.9-2.3,0-.9-.4-1.6-1-2.1-.6-.5-1.4-.9-2.3-1.2-1.7-.6-3.3-1.4-4.7-2.2-1.5-.8-2.6-1.9-3.5-3.1-.9-1.2-1.3-2.8-1.3-4.6s.4-3.4,1.1-4.9c.8-1.5,1.9-2.6,3.2-3.5,1.4-.9,3-1.4,4.8-1.5.8,0,1.9,0,3.1.1,1.2.1,2.9.5,5,1.3l-.8,6.2c-1.8-.7-3.2-1.1-4.3-1.2-1.1-.1-1.8-.2-2.4-.1-1.1,0-2,.5-2.5,1.2-.5.7-.8,1.5-.7,2.4,0,.9.5,1.6,1.2,2.1.7.5,1.5.9,2.4,1.2,1.7.6,3.2,1.3,4.6,2.2,1.4.9,2.5,2,3.4,3.2.9,1.3,1.3,2.7,1.3,4.4s-.4,3.4-1.2,4.8c-.8,1.4-1.9,2.6-3.4,3.5-1.5.9-3.2,1.4-5.2,1.5-.6,0-1.4,0-2.5,0-1,0-2.2-.3-3.5-.6-1.3-.3-2.7-.9-4.2-1.7Z"/>
  <path class="st2" d="M208.5,51.1c0,2.2-.4,4.1-1.3,5.6-.8,1.6-1.9,2.8-3.3,3.7-1.4.9-2.9,1.6-4.5,1.9-1.7.3-3.3.3-5,0-1.7-.3-3.2-.9-4.6-1.9-1.4-.9-2.5-2.2-3.3-3.7-.8-1.6-1.3-3.4-1.3-5.6v-21h6.4v21c0,1.4.4,2.5,1.1,3.3.7.8,1.6,1.3,2.6,1.6,1,.3,2.1.3,3.1,0,1-.3,1.9-.8,2.6-1.6.7-.8,1.1-1.9,1.1-3.3v-21h6.4v21Z"/>
  <path class="st2" d="M228,43.7l12.7-14.2h2v32.8h-6.5v-18s-8.2,8.7-8.2,8.7l-8.3-8.7v18h-6.5V29.6h2.1l12.7,14.2Z"/>
  <path class="st2" d="M264.2,62.3h-16.7V30.1h16.2v6.5h-9.7v6.5h8.5v6.5h-8.5v6.4h10.3v6.5Z"/>
  <path class="st2" d="M269.1,55.4c1,0,1.8.3,2.4.8s1,1.1,1.2,1.8c.2.7.2,1.4,0,2.1-.2.7-.6,1.3-1.2,1.8-.6.5-1.4.7-2.3.7s-1.7-.2-2.3-.7c-.6-.5-1-1.1-1.2-1.8-.2-.7-.2-1.4,0-2.1.2-.7.6-1.3,1.2-1.8.6-.5,1.4-.8,2.3-.8Z"/>
  <path class="st2" d="M273.4,62.3l13.6-33.4h.7l13.6,33.4h-7.3l-1.3-3.5h-10.7l-1.3,3.5h-7.3ZM284.3,52.8h6l-2.9-8.4-3,8.4Z"/>
  <path class="st2" d="M309.7,62.3h-6.5V30.1h6.5v32.3Z"/>
  <path class="st2" d="M119.5,75.5l-.5,1.7h3.4l-.5-1.7c-.2-.6-.4-1.3-.6-1.9-.2-.6-.4-1.3-.6-1.9h0c-.2.7-.4,1.3-.5,1.9-.2.6-.4,1.3-.6,1.9ZM116,81.8l3.9-11.4h1.6l3.9,11.4h-1.5l-1.1-3.5h-4.1l-1.1,3.5h-1.5Z"/>
  <path class="st2" d="M126.9,81.8v-11.4h1.4v11.4h-1.4Z"/>
  <path class="st2" d="M135,81.8v-11.4h3.5c.6,0,1.1,0,1.6.2.5.1.9.3,1.3.6.4.3.6.6.8,1,.2.4.3.9.3,1.5,0,.9-.2,1.6-.7,2.1-.5.5-1.1.9-1.9,1.1l2.9,5h-1.6l-2.7-4.8h-2.1v4.8h-1.4ZM136.4,75.8h1.9c.9,0,1.6-.2,2.1-.5.5-.4.7-.9.7-1.7s-.2-1.3-.7-1.6c-.5-.3-1.2-.5-2.1-.5h-1.9v4.2Z"/>
  <path class="st2" d="M144.8,81.8v-11.4h6.5v1.2h-5.1v3.6h4.3v1.2h-4.3v4.1h5.3v1.2h-6.7Z"/>
  <path class="st2" d="M157.1,82c-.8,0-1.5-.1-2.2-.4-.7-.3-1.3-.7-1.8-1.3l.9-1c.4.4.9.8,1.4,1,.6.3,1.1.4,1.7.4s1.3-.2,1.8-.5c.4-.3.6-.8.6-1.4s0-.5-.1-.7c0-.2-.2-.4-.4-.5-.2-.1-.4-.3-.6-.4-.2-.1-.5-.3-.8-.4l-1.6-.7c-.3-.1-.5-.3-.8-.4-.3-.2-.5-.4-.8-.6-.2-.2-.4-.5-.5-.8-.1-.3-.2-.7-.2-1.1s0-.8.3-1.2c.2-.4.4-.7.8-1,.3-.3.7-.5,1.1-.6.4-.2.9-.2,1.4-.2s1.3.1,1.9.4c.6.3,1.1.6,1.5,1l-.8.9c-.3-.3-.7-.6-1.2-.8-.4-.2-.9-.3-1.4-.3s-1.2.1-1.5.4c-.4.3-.6.7-.6,1.2s0,.5.2.7c.1.2.3.3.4.5.2.1.4.3.6.4.2.1.4.2.7.3l1.6.7c.3.1.6.3.9.5.3.2.5.4.8.6.2.2.4.5.5.8.1.3.2.7.2,1.1s0,.9-.3,1.3c-.2.4-.4.7-.8,1-.3.3-.7.5-1.2.7-.5.2-1,.3-1.6.3Z"/>
  <path class="st2" d="M167.3,82c-.6,0-1.1,0-1.6-.3s-.9-.4-1.3-.8c-.4-.4-.6-.9-.9-1.5s-.3-1.4-.3-2.3v-6.7h1.4v6.7c0,.7,0,1.3.2,1.7.1.5.3.8.6,1.1.3.3.5.5.9.6.3.1.7.2,1,.2s.7,0,1-.2c.3-.1.6-.3.9-.6.3-.3.4-.6.6-1.1.1-.5.2-1,.2-1.7v-6.7h1.4v6.7c0,.9-.1,1.7-.3,2.3s-.5,1.1-.9,1.5c-.4.4-.8.7-1.3.8s-1,.3-1.6.3Z"/>
  <path class="st2" d="M174.4,81.8v-11.4h1.7l2.2,6.1c.1.4.3.8.4,1.2.1.4.3.8.4,1.2h0c.1-.4.3-.8.4-1.2.1-.4.3-.8.4-1.2l2.1-6.1h1.8v11.4h-1.4v-6.3c0-.5,0-1.1,0-1.7,0-.6,0-1.2.1-1.7h0l-.9,2.6-2.2,5.9h-.9l-2.1-5.9-.9-2.6h0c0,.5,0,1.1.1,1.7,0,.6,0,1.2,0,1.7v6.3h-1.3Z"/>
  <path class="st2" d="M187,81.8v-11.4h6.5v1.2h-5.1v3.6h4.3v1.2h-4.3v4.1h5.3v1.2h-6.7Z"/>
  <path class="st2" d="M199.6,81.8v-11.4h3.4c.6,0,1.1,0,1.6.2.5,0,.9.3,1.2.5.3.2.6.5.8.9.2.3.3.8.3,1.3s-.1,1.1-.4,1.5c-.3.5-.7.8-1.3.9h0c.7.2,1.3.5,1.7,1,.4.4.6,1.1.6,1.8s-.1,1-.3,1.5-.5.8-.9,1c-.4.3-.8.5-1.4.6-.5.1-1.1.2-1.8.2h-3.6ZM201,75.3h1.7c1,0,1.7-.2,2.1-.5.4-.3.6-.8.6-1.4s-.2-1.1-.7-1.4c-.4-.3-1.1-.4-2-.4h-1.8v3.7ZM201,80.7h2c1,0,1.8-.2,2.3-.5.5-.4.8-.9.8-1.7s-.3-1.2-.8-1.5c-.5-.3-1.3-.5-2.3-.5h-2v4.3Z"/>
  <path class="st2" d="M213.8,82c-.6,0-1.1,0-1.6-.3s-.9-.4-1.3-.8c-.4-.4-.6-.9-.9-1.5s-.3-1.4-.3-2.3v-6.7h1.4v6.7c0,.7,0,1.3.2,1.7.1.5.3.8.6,1.1.3.3.5.5.9.6.3.1.7.2,1,.2s.7,0,1-.2c.3-.1.6-.3.9-.6.3-.3.4-.6.6-1.1.1-.5.2-1,.2-1.7v-6.7h1.4v6.7c0,.9-.1,1.7-.3,2.3s-.5,1.1-.9,1.5c-.4.4-.8.7-1.3.8s-1,.3-1.6.3Z"/>
  <path class="st2" d="M220.9,81.8v-11.4h1.4v11.4h-1.4Z"/>
  <path class="st2" d="M225.5,81.8v-11.4h1.4v10.1h5v1.2h-6.4Z"/>
  <path class="st2" d="M233.9,81.8v-11.4h2.8c1.8,0,3.1.5,4,1.5.9,1,1.4,2.4,1.4,4.2s-.1,1.7-.4,2.4c-.2.7-.6,1.3-1,1.8-.4.5-1,.9-1.7,1.1-.7.3-1.4.4-2.3.4h-2.9ZM235.4,80.6h1.3c1.3,0,2.3-.4,3-1.2s1-1.9,1-3.4-.3-2.5-1-3.3c-.7-.8-1.7-1.1-3-1.1h-1.3v9Z"/>
  <path class="st2" d="M244.6,81.8v-11.4h6.5v1.2h-5.1v3.6h4.3v1.2h-4.3v4.1h5.3v1.2h-6.7Z"/>
  <path class="st2" d="M253.7,81.8v-11.4h3.5c.6,0,1.1,0,1.6.2.5.1.9.3,1.3.6.4.3.6.6.8,1,.2.4.3.9.3,1.5,0,.9-.2,1.6-.7,2.1-.5.5-1.1.9-1.9,1.1l2.9,5h-1.6l-2.7-4.8h-2.1v4.8h-1.4ZM255.2,75.8h1.9c.9,0,1.6-.2,2.1-.5.5-.4.7-.9.7-1.7s-.2-1.3-.7-1.6c-.5-.3-1.2-.5-2.1-.5h-1.9v4.2Z"/>
</svg>